<?xml version="1.0" encoding="UTF-8"?>
<svg xmlns="http://www.w3.org/2000/svg" version="1.1" baseProfile="full" width="1000px" height="600px" viewBox="0 0 1000 1000">
<circle cx="500" cy="500" r="200" stroke="gray" fill="white" fill-opacity="0.1" stroke-opacity="1.0" style="stroke-width:5" />
<circle cx="500" cy="500" r="250" stroke="gray" fill="white" fill-opacity="0.1" stroke-opacity="1.0" style="stroke-width:5" />
<circle cx="500" cy="500" r="300" stroke="gray" fill="white" fill-opacity="0.1" stroke-opacity="1.0" style="stroke-width:5" />
<circle cx="500" cy="500" r="350" stroke="gray" fill="white" fill-opacity="0.1" stroke-opacity="1.0" style="stroke-width:5" />
<circle cx="500" cy="500" r="400" stroke="gray" fill="white" fill-opacity="0.1" stroke-opacity="1.0" style="stroke-width:5" />
<rect x="334" y="0" width="166" height="400" style="fill:white;stroke-width:5;stroke:white;fill-opacity:1.0;stroke-opacity:0.95" />
<line x1="500" y1="300" x2="500" y2="200" stroke="gray" stroke-width="5px" style="stroke-opacity:1.0"/>
<line x1="480" y1="300" x2="520" y2="300" stroke="black" stroke-width="10px" style="stroke-opacity:1.0"/><text x="367" y="316" fill="black" style="font-size:50px" transform="rotate(0,392,341)" >20%</text>
<line x1="480" y1="250" x2="520" y2="250" stroke="black" stroke-width="10px" style="stroke-opacity:1.0"/><text x="367" y="266" fill="black" style="font-size:50px" transform="rotate(0,392,291)" >40%</text>
<line x1="480" y1="200" x2="520" y2="200" stroke="black" stroke-width="10px" style="stroke-opacity:1.0"/><text x="367" y="216" fill="black" style="font-size:50px" transform="rotate(0,392,241)" >60%</text>
<line x1="480" y1="150" x2="520" y2="150" stroke="black" stroke-width="10px" style="stroke-opacity:1.0"/><text x="367" y="166" fill="black" style="font-size:50px" transform="rotate(0,392,191)" >80%</text>
<line x1="480" y1="100" x2="520" y2="100" stroke="black" stroke-width="10px" style="stroke-opacity:1.0"/><text x="367" y="116" fill="black" style="font-size:50px" transform="rotate(0,392,141)" >100%</text>
<line x1="500" y1="100" x2="500" y2="60" stroke="black" stroke-width="10px" style="stroke-opacity:1.0"/><text x="484" y="20" fill="black" style="font-size:50px" transform="rotate(0,509,45)" >0</text>
<line x1="563" y1="105" x2="566" y2="85" stroke="black" stroke-width="10px" style="stroke-opacity:1.0"/>
<line x1="624" y1="120" x2="630" y2="101" stroke="black" stroke-width="10px" style="stroke-opacity:1.0"/>
<line x1="682" y1="144" x2="700" y2="108" stroke="black" stroke-width="10px" style="stroke-opacity:1.0"/><text x="702" y="72" fill="black" style="font-size:50px" transform="rotate(0,727,97)" >3</text>
<line x1="735" y1="176" x2="747" y2="160" stroke="black" stroke-width="10px" style="stroke-opacity:1.0"/>
<line x1="783" y1="217" x2="797" y2="203" stroke="black" stroke-width="10px" style="stroke-opacity:1.0"/>
<line x1="824" y1="265" x2="856" y2="241" stroke="black" stroke-width="10px" style="stroke-opacity:1.0"/><text x="872" y="217" fill="black" style="font-size:50px" transform="rotate(0,897,242)" >6</text>
<line x1="856" y1="318" x2="874" y2="309" stroke="black" stroke-width="10px" style="stroke-opacity:1.0"/>
<line x1="880" y1="376" x2="899" y2="370" stroke="black" stroke-width="10px" style="stroke-opacity:1.0"/>
<line x1="895" y1="437" x2="935" y2="431" stroke="black" stroke-width="10px" style="stroke-opacity:1.0"/><text x="959" y="425" fill="black" style="font-size:50px" transform="rotate(0,984,450)" >9</text>
<line x1="900" y1="500" x2="920" y2="500" stroke="black" stroke-width="10px" style="stroke-opacity:1.0"/>
<line x1="895" y1="563" x2="915" y2="566" stroke="black" stroke-width="10px" style="stroke-opacity:1.0"/>
<line x1="880" y1="624" x2="918" y2="636" stroke="black" stroke-width="10px" style="stroke-opacity:1.0"/><text x="940" y="648" fill="black" style="font-size:50px" transform="rotate(0,965,673)" >12</text>
<line x1="856" y1="682" x2="874" y2="691" stroke="black" stroke-width="10px" style="stroke-opacity:1.0"/>
<line x1="824" y1="735" x2="840" y2="747" stroke="black" stroke-width="10px" style="stroke-opacity:1.0"/>
<line x1="783" y1="783" x2="811" y2="811" stroke="black" stroke-width="10px" style="stroke-opacity:1.0"/><text x="823" y="839" fill="black" style="font-size:50px" transform="rotate(0,848,864)" >15</text>
<line x1="735" y1="824" x2="747" y2="840" stroke="black" stroke-width="10px" style="stroke-opacity:1.0"/>
<line x1="682" y1="856" x2="691" y2="874" stroke="black" stroke-width="10px" style="stroke-opacity:1.0"/>
<line x1="624" y1="880" x2="636" y2="918" stroke="black" stroke-width="10px" style="stroke-opacity:1.0"/><text x="632" y="956" fill="black" style="font-size:50px" transform="rotate(0,657,981)" >18</text>
<line x1="563" y1="895" x2="566" y2="915" stroke="black" stroke-width="10px" style="stroke-opacity:1.0"/>
<line x1="500" y1="900" x2="500" y2="920" stroke="black" stroke-width="10px" style="stroke-opacity:1.0"/>
<line x1="437" y1="895" x2="431" y2="935" stroke="black" stroke-width="10px" style="stroke-opacity:1.0"/><text x="409" y="975" fill="black" style="font-size:50px" transform="rotate(0,434,1000)" >21</text>
<line x1="376" y1="880" x2="370" y2="899" stroke="black" stroke-width="10px" style="stroke-opacity:1.0"/>
<line x1="318" y1="856" x2="309" y2="874" stroke="black" stroke-width="10px" style="stroke-opacity:1.0"/>
<line x1="265" y1="824" x2="241" y2="856" stroke="black" stroke-width="10px" style="stroke-opacity:1.0"/><text x="201" y="888" fill="black" style="font-size:50px" transform="rotate(0,226,913)" >24</text>
<line x1="217" y1="783" x2="203" y2="797" stroke="black" stroke-width="10px" style="stroke-opacity:1.0"/>
<line x1="176" y1="735" x2="160" y2="747" stroke="black" stroke-width="10px" style="stroke-opacity:1.0"/>
<line x1="144" y1="682" x2="108" y2="700" stroke="black" stroke-width="10px" style="stroke-opacity:1.0"/><text x="56" y="718" fill="black" style="font-size:50px" transform="rotate(0,81,743)" >27</text>
<line x1="120" y1="624" x2="101" y2="630" stroke="black" stroke-width="10px" style="stroke-opacity:1.0"/>
<line x1="105" y1="563" x2="85" y2="566" stroke="black" stroke-width="10px" style="stroke-opacity:1.0"/>
<line x1="100" y1="500" x2="60" y2="500" stroke="black" stroke-width="10px" style="stroke-opacity:1.0"/><text x="4" y="500" fill="black" style="font-size:50px" transform="rotate(0,29,525)" >30</text>
<line x1="105" y1="437" x2="85" y2="434" stroke="black" stroke-width="10px" style="stroke-opacity:1.0"/>
<line x1="120" y1="376" x2="101" y2="370" stroke="black" stroke-width="10px" style="stroke-opacity:1.0"/>
<line x1="144" y1="318" x2="108" y2="300" stroke="black" stroke-width="10px" style="stroke-opacity:1.0"/><text x="56" y="282" fill="black" style="font-size:50px" transform="rotate(0,81,307)" >33</text>
<line x1="176" y1="265" x2="160" y2="253" stroke="black" stroke-width="10px" style="stroke-opacity:1.0"/>
<line x1="217" y1="217" x2="203" y2="203" stroke="black" stroke-width="10px" style="stroke-opacity:1.0"/>
<line x1="265" y1="176" x2="241" y2="144" stroke="black" stroke-width="10px" style="stroke-opacity:1.0"/><text x="201" y="112" fill="black" style="font-size:50px" transform="rotate(0,226,137)" >36</text>
<line x1="500" y1="200" x2="563" y2="105" stroke="white" stroke-width="20px" style="stroke-opacity:0.95"/>
<line x1="563" y1="105" x2="624" y2="120" stroke="white" stroke-width="20px" style="stroke-opacity:0.95"/>
<line x1="624" y1="120" x2="591" y2="322" stroke="white" stroke-width="20px" style="stroke-opacity:0.95"/>
<line x1="591" y1="322" x2="676" y2="257" stroke="white" stroke-width="20px" style="stroke-opacity:0.95"/>
<line x1="676" y1="257" x2="712" y2="288" stroke="white" stroke-width="20px" style="stroke-opacity:0.95"/>
<line x1="712" y1="288" x2="702" y2="353" stroke="white" stroke-width="20px" style="stroke-opacity:0.95"/>
<line x1="702" y1="353" x2="812" y2="341" stroke="white" stroke-width="20px" style="stroke-opacity:0.95"/>
<line x1="812" y1="341" x2="690" y2="438" stroke="white" stroke-width="20px" style="stroke-opacity:0.95"/>
<line x1="690" y1="438" x2="846" y2="445" stroke="white" stroke-width="20px" style="stroke-opacity:0.95"/>
<line x1="846" y1="445" x2="850" y2="500" stroke="white" stroke-width="20px" style="stroke-opacity:0.95"/>
<line x1="850" y1="500" x2="846" y2="555" stroke="white" stroke-width="20px" style="stroke-opacity:0.95"/>
<line x1="846" y1="555" x2="880" y2="624" stroke="white" stroke-width="20px" style="stroke-opacity:0.95"/>
<line x1="880" y1="624" x2="678" y2="591" stroke="white" stroke-width="20px" style="stroke-opacity:0.95"/>
<line x1="678" y1="591" x2="783" y2="706" stroke="white" stroke-width="20px" style="stroke-opacity:0.95"/>
<line x1="783" y1="706" x2="783" y2="783" stroke="white" stroke-width="20px" style="stroke-opacity:0.95"/>
<line x1="783" y1="783" x2="647" y2="702" stroke="white" stroke-width="20px" style="stroke-opacity:0.95"/>
<line x1="647" y1="702" x2="659" y2="812" stroke="white" stroke-width="20px" style="stroke-opacity:0.95"/>
<line x1="659" y1="812" x2="624" y2="880" stroke="white" stroke-width="20px" style="stroke-opacity:0.95"/>
<line x1="624" y1="880" x2="539" y2="747" stroke="white" stroke-width="20px" style="stroke-opacity:0.95"/>
<line x1="539" y1="747" x2="500" y2="750" stroke="white" stroke-width="20px" style="stroke-opacity:0.95"/>
<line x1="500" y1="750" x2="445" y2="846" stroke="white" stroke-width="20px" style="stroke-opacity:0.95"/>
<line x1="445" y1="846" x2="392" y2="833" stroke="white" stroke-width="20px" style="stroke-opacity:0.95"/>
<line x1="392" y1="833" x2="341" y2="812" stroke="white" stroke-width="20px" style="stroke-opacity:0.95"/>
<line x1="341" y1="812" x2="382" y2="662" stroke="white" stroke-width="20px" style="stroke-opacity:0.95"/>
<line x1="382" y1="662" x2="288" y2="712" stroke="white" stroke-width="20px" style="stroke-opacity:0.95"/>
<line x1="288" y1="712" x2="176" y2="735" stroke="white" stroke-width="20px" style="stroke-opacity:0.95"/>
<line x1="176" y1="735" x2="144" y2="682" stroke="white" stroke-width="20px" style="stroke-opacity:0.95"/>
<line x1="144" y1="682" x2="167" y2="608" stroke="white" stroke-width="20px" style="stroke-opacity:0.95"/>
<line x1="167" y1="608" x2="204" y2="547" stroke="white" stroke-width="20px" style="stroke-opacity:0.95"/>
<line x1="204" y1="547" x2="200" y2="500" stroke="white" stroke-width="20px" style="stroke-opacity:0.95"/>
<line x1="200" y1="500" x2="253" y2="461" stroke="white" stroke-width="20px" style="stroke-opacity:0.95"/>
<line x1="253" y1="461" x2="167" y2="392" stroke="white" stroke-width="20px" style="stroke-opacity:0.95"/>
<line x1="167" y1="392" x2="277" y2="387" stroke="white" stroke-width="20px" style="stroke-opacity:0.95"/>
<line x1="277" y1="387" x2="176" y2="265" stroke="white" stroke-width="20px" style="stroke-opacity:0.95"/>
<line x1="176" y1="265" x2="323" y2="323" stroke="white" stroke-width="20px" style="stroke-opacity:0.95"/>
<line x1="323" y1="323" x2="265" y2="176" stroke="white" stroke-width="20px" style="stroke-opacity:0.95"/>
<line x1="500" y1="200" x2="563" y2="105" stroke="red" stroke-width="5px" style="stroke-opacity:0.8"/>
<line x1="563" y1="105" x2="624" y2="120" stroke="red" stroke-width="5px" style="stroke-opacity:0.8"/>
<line x1="624" y1="120" x2="591" y2="322" stroke="red" stroke-width="5px" style="stroke-opacity:0.8"/>
<line x1="591" y1="322" x2="676" y2="257" stroke="red" stroke-width="5px" style="stroke-opacity:0.8"/>
<line x1="676" y1="257" x2="712" y2="288" stroke="red" stroke-width="5px" style="stroke-opacity:0.8"/>
<line x1="712" y1="288" x2="702" y2="353" stroke="red" stroke-width="5px" style="stroke-opacity:0.8"/>
<line x1="702" y1="353" x2="812" y2="341" stroke="red" stroke-width="5px" style="stroke-opacity:0.8"/>
<line x1="812" y1="341" x2="690" y2="438" stroke="red" stroke-width="5px" style="stroke-opacity:0.8"/>
<line x1="690" y1="438" x2="846" y2="445" stroke="red" stroke-width="5px" style="stroke-opacity:0.8"/>
<line x1="846" y1="445" x2="850" y2="500" stroke="red" stroke-width="5px" style="stroke-opacity:0.8"/>
<line x1="850" y1="500" x2="846" y2="555" stroke="red" stroke-width="5px" style="stroke-opacity:0.8"/>
<line x1="846" y1="555" x2="880" y2="624" stroke="red" stroke-width="5px" style="stroke-opacity:0.8"/>
<line x1="880" y1="624" x2="678" y2="591" stroke="red" stroke-width="5px" style="stroke-opacity:0.8"/>
<line x1="678" y1="591" x2="783" y2="706" stroke="red" stroke-width="5px" style="stroke-opacity:0.8"/>
<line x1="783" y1="706" x2="783" y2="783" stroke="red" stroke-width="5px" style="stroke-opacity:0.8"/>
<line x1="783" y1="783" x2="647" y2="702" stroke="red" stroke-width="5px" style="stroke-opacity:0.8"/>
<line x1="647" y1="702" x2="659" y2="812" stroke="red" stroke-width="5px" style="stroke-opacity:0.8"/>
<line x1="659" y1="812" x2="624" y2="880" stroke="red" stroke-width="5px" style="stroke-opacity:0.8"/>
<line x1="624" y1="880" x2="539" y2="747" stroke="red" stroke-width="5px" style="stroke-opacity:0.8"/>
<line x1="539" y1="747" x2="500" y2="750" stroke="red" stroke-width="5px" style="stroke-opacity:0.8"/>
<line x1="500" y1="750" x2="445" y2="846" stroke="red" stroke-width="5px" style="stroke-opacity:0.8"/>
<line x1="445" y1="846" x2="392" y2="833" stroke="red" stroke-width="5px" style="stroke-opacity:0.8"/>
<line x1="392" y1="833" x2="341" y2="812" stroke="red" stroke-width="5px" style="stroke-opacity:0.8"/>
<line x1="341" y1="812" x2="382" y2="662" stroke="red" stroke-width="5px" style="stroke-opacity:0.8"/>
<line x1="382" y1="662" x2="288" y2="712" stroke="red" stroke-width="5px" style="stroke-opacity:0.8"/>
<line x1="288" y1="712" x2="176" y2="735" stroke="red" stroke-width="5px" style="stroke-opacity:0.8"/>
<line x1="176" y1="735" x2="144" y2="682" stroke="red" stroke-width="5px" style="stroke-opacity:0.8"/>
<line x1="144" y1="682" x2="167" y2="608" stroke="red" stroke-width="5px" style="stroke-opacity:0.8"/>
<line x1="167" y1="608" x2="204" y2="547" stroke="red" stroke-width="5px" style="stroke-opacity:0.8"/>
<line x1="204" y1="547" x2="200" y2="500" stroke="red" stroke-width="5px" style="stroke-opacity:0.8"/>
<line x1="200" y1="500" x2="253" y2="461" stroke="red" stroke-width="5px" style="stroke-opacity:0.8"/>
<line x1="253" y1="461" x2="167" y2="392" stroke="red" stroke-width="5px" style="stroke-opacity:0.8"/>
<line x1="167" y1="392" x2="277" y2="387" stroke="red" stroke-width="5px" style="stroke-opacity:0.8"/>
<line x1="277" y1="387" x2="176" y2="265" stroke="red" stroke-width="5px" style="stroke-opacity:0.8"/>
<line x1="176" y1="265" x2="323" y2="323" stroke="red" stroke-width="5px" style="stroke-opacity:0.8"/>
<line x1="323" y1="323" x2="265" y2="176" stroke="red" stroke-width="5px" style="stroke-opacity:0.8"/>
<circle cx="500" cy="200" r="15" stroke="white" fill="white" fill-opacity="0.95" stroke-opacity="0.95" style="stroke-width:5" />
<circle cx="563" cy="105" r="15" stroke="white" fill="white" fill-opacity="0.95" stroke-opacity="0.95" style="stroke-width:5" />
<circle cx="624" cy="120" r="15" stroke="white" fill="white" fill-opacity="0.95" stroke-opacity="0.95" style="stroke-width:5" />
<circle cx="591" cy="322" r="15" stroke="white" fill="white" fill-opacity="0.95" stroke-opacity="0.95" style="stroke-width:5" />
<circle cx="676" cy="257" r="15" stroke="white" fill="white" fill-opacity="0.95" stroke-opacity="0.95" style="stroke-width:5" />
<circle cx="712" cy="288" r="15" stroke="white" fill="white" fill-opacity="0.95" stroke-opacity="0.95" style="stroke-width:5" />
<circle cx="702" cy="353" r="15" stroke="white" fill="white" fill-opacity="0.95" stroke-opacity="0.95" style="stroke-width:5" />
<circle cx="812" cy="341" r="15" stroke="white" fill="white" fill-opacity="0.95" stroke-opacity="0.95" style="stroke-width:5" />
<circle cx="690" cy="438" r="15" stroke="white" fill="white" fill-opacity="0.95" stroke-opacity="0.95" style="stroke-width:5" />
<circle cx="846" cy="445" r="15" stroke="white" fill="white" fill-opacity="0.95" stroke-opacity="0.95" style="stroke-width:5" />
<circle cx="850" cy="500" r="15" stroke="white" fill="white" fill-opacity="0.95" stroke-opacity="0.95" style="stroke-width:5" />
<circle cx="846" cy="555" r="15" stroke="white" fill="white" fill-opacity="0.95" stroke-opacity="0.95" style="stroke-width:5" />
<circle cx="880" cy="624" r="15" stroke="white" fill="white" fill-opacity="0.95" stroke-opacity="0.95" style="stroke-width:5" />
<circle cx="678" cy="591" r="15" stroke="white" fill="white" fill-opacity="0.95" stroke-opacity="0.95" style="stroke-width:5" />
<circle cx="783" cy="706" r="15" stroke="white" fill="white" fill-opacity="0.95" stroke-opacity="0.95" style="stroke-width:5" />
<circle cx="783" cy="783" r="15" stroke="white" fill="white" fill-opacity="0.95" stroke-opacity="0.95" style="stroke-width:5" />
<circle cx="647" cy="702" r="15" stroke="white" fill="white" fill-opacity="0.95" stroke-opacity="0.95" style="stroke-width:5" />
<circle cx="659" cy="812" r="15" stroke="white" fill="white" fill-opacity="0.95" stroke-opacity="0.95" style="stroke-width:5" />
<circle cx="624" cy="880" r="15" stroke="white" fill="white" fill-opacity="0.95" stroke-opacity="0.95" style="stroke-width:5" />
<circle cx="539" cy="747" r="15" stroke="white" fill="white" fill-opacity="0.95" stroke-opacity="0.95" style="stroke-width:5" />
<circle cx="500" cy="750" r="15" stroke="white" fill="white" fill-opacity="0.95" stroke-opacity="0.95" style="stroke-width:5" />
<circle cx="445" cy="846" r="15" stroke="white" fill="white" fill-opacity="0.95" stroke-opacity="0.95" style="stroke-width:5" />
<circle cx="392" cy="833" r="15" stroke="white" fill="white" fill-opacity="0.95" stroke-opacity="0.95" style="stroke-width:5" />
<circle cx="341" cy="812" r="15" stroke="white" fill="white" fill-opacity="0.95" stroke-opacity="0.95" style="stroke-width:5" />
<circle cx="382" cy="662" r="15" stroke="white" fill="white" fill-opacity="0.95" stroke-opacity="0.95" style="stroke-width:5" />
<circle cx="288" cy="712" r="15" stroke="white" fill="white" fill-opacity="0.95" stroke-opacity="0.95" style="stroke-width:5" />
<circle cx="176" cy="735" r="15" stroke="white" fill="white" fill-opacity="0.95" stroke-opacity="0.95" style="stroke-width:5" />
<circle cx="144" cy="682" r="15" stroke="white" fill="white" fill-opacity="0.95" stroke-opacity="0.95" style="stroke-width:5" />
<circle cx="167" cy="608" r="15" stroke="white" fill="white" fill-opacity="0.95" stroke-opacity="0.95" style="stroke-width:5" />
<circle cx="204" cy="547" r="15" stroke="white" fill="white" fill-opacity="0.95" stroke-opacity="0.95" style="stroke-width:5" />
<circle cx="200" cy="500" r="15" stroke="white" fill="white" fill-opacity="0.95" stroke-opacity="0.95" style="stroke-width:5" />
<circle cx="253" cy="461" r="15" stroke="white" fill="white" fill-opacity="0.95" stroke-opacity="0.95" style="stroke-width:5" />
<circle cx="167" cy="392" r="15" stroke="white" fill="white" fill-opacity="0.95" stroke-opacity="0.95" style="stroke-width:5" />
<circle cx="277" cy="387" r="15" stroke="white" fill="white" fill-opacity="0.95" stroke-opacity="0.95" style="stroke-width:5" />
<circle cx="176" cy="265" r="15" stroke="white" fill="white" fill-opacity="0.95" stroke-opacity="0.95" style="stroke-width:5" />
<circle cx="323" cy="323" r="15" stroke="white" fill="white" fill-opacity="0.95" stroke-opacity="0.95" style="stroke-width:5" />
<circle cx="265" cy="176" r="15" stroke="white" fill="white" fill-opacity="0.95" stroke-opacity="0.95" style="stroke-width:5" />
<circle cx="500" cy="200" r="10" stroke="red" fill="white" fill-opacity="0.8" stroke-opacity="0.8" style="stroke-width:5" />
<circle cx="563" cy="105" r="10" stroke="red" fill="white" fill-opacity="0.8" stroke-opacity="0.8" style="stroke-width:5" />
<circle cx="624" cy="120" r="10" stroke="red" fill="white" fill-opacity="0.8" stroke-opacity="0.8" style="stroke-width:5" />
<circle cx="591" cy="322" r="10" stroke="red" fill="white" fill-opacity="0.8" stroke-opacity="0.8" style="stroke-width:5" />
<circle cx="676" cy="257" r="10" stroke="red" fill="white" fill-opacity="0.8" stroke-opacity="0.8" style="stroke-width:5" />
<circle cx="712" cy="288" r="10" stroke="red" fill="white" fill-opacity="0.8" stroke-opacity="0.8" style="stroke-width:5" />
<circle cx="702" cy="353" r="10" stroke="red" fill="white" fill-opacity="0.8" stroke-opacity="0.8" style="stroke-width:5" />
<circle cx="812" cy="341" r="10" stroke="red" fill="white" fill-opacity="0.8" stroke-opacity="0.8" style="stroke-width:5" />
<circle cx="690" cy="438" r="10" stroke="red" fill="white" fill-opacity="0.8" stroke-opacity="0.8" style="stroke-width:5" />
<circle cx="846" cy="445" r="10" stroke="red" fill="white" fill-opacity="0.8" stroke-opacity="0.8" style="stroke-width:5" />
<circle cx="850" cy="500" r="10" stroke="red" fill="white" fill-opacity="0.8" stroke-opacity="0.8" style="stroke-width:5" />
<circle cx="846" cy="555" r="10" stroke="red" fill="white" fill-opacity="0.8" stroke-opacity="0.8" style="stroke-width:5" />
<circle cx="880" cy="624" r="10" stroke="red" fill="white" fill-opacity="0.8" stroke-opacity="0.8" style="stroke-width:5" />
<circle cx="678" cy="591" r="10" stroke="red" fill="white" fill-opacity="0.8" stroke-opacity="0.8" style="stroke-width:5" />
<circle cx="783" cy="706" r="10" stroke="red" fill="white" fill-opacity="0.8" stroke-opacity="0.8" style="stroke-width:5" />
<circle cx="783" cy="783" r="10" stroke="red" fill="white" fill-opacity="0.8" stroke-opacity="0.8" style="stroke-width:5" />
<circle cx="647" cy="702" r="10" stroke="red" fill="white" fill-opacity="0.8" stroke-opacity="0.8" style="stroke-width:5" />
<circle cx="659" cy="812" r="10" stroke="red" fill="white" fill-opacity="0.8" stroke-opacity="0.8" style="stroke-width:5" />
<circle cx="624" cy="880" r="10" stroke="red" fill="white" fill-opacity="0.8" stroke-opacity="0.8" style="stroke-width:5" />
<circle cx="539" cy="747" r="10" stroke="red" fill="white" fill-opacity="0.8" stroke-opacity="0.8" style="stroke-width:5" />
<circle cx="500" cy="750" r="10" stroke="red" fill="white" fill-opacity="0.8" stroke-opacity="0.8" style="stroke-width:5" />
<circle cx="445" cy="846" r="10" stroke="red" fill="white" fill-opacity="0.8" stroke-opacity="0.8" style="stroke-width:5" />
<circle cx="392" cy="833" r="10" stroke="red" fill="white" fill-opacity="0.8" stroke-opacity="0.8" style="stroke-width:5" />
<circle cx="341" cy="812" r="10" stroke="red" fill="white" fill-opacity="0.8" stroke-opacity="0.8" style="stroke-width:5" />
<circle cx="382" cy="662" r="10" stroke="red" fill="white" fill-opacity="0.8" stroke-opacity="0.8" style="stroke-width:5" />
<circle cx="288" cy="712" r="10" stroke="red" fill="white" fill-opacity="0.8" stroke-opacity="0.8" style="stroke-width:5" />
<circle cx="176" cy="735" r="10" stroke="red" fill="white" fill-opacity="0.8" stroke-opacity="0.8" style="stroke-width:5" />
<circle cx="144" cy="682" r="10" stroke="red" fill="white" fill-opacity="0.8" stroke-opacity="0.8" style="stroke-width:5" />
<circle cx="167" cy="608" r="10" stroke="red" fill="white" fill-opacity="0.8" stroke-opacity="0.8" style="stroke-width:5" />
<circle cx="204" cy="547" r="10" stroke="red" fill="white" fill-opacity="0.8" stroke-opacity="0.8" style="stroke-width:5" />
<circle cx="200" cy="500" r="10" stroke="red" fill="white" fill-opacity="0.8" stroke-opacity="0.8" style="stroke-width:5" />
<circle cx="253" cy="461" r="10" stroke="red" fill="white" fill-opacity="0.8" stroke-opacity="0.8" style="stroke-width:5" />
<circle cx="167" cy="392" r="10" stroke="red" fill="white" fill-opacity="0.8" stroke-opacity="0.8" style="stroke-width:5" />
<circle cx="277" cy="387" r="10" stroke="red" fill="white" fill-opacity="0.8" stroke-opacity="0.8" style="stroke-width:5" />
<circle cx="176" cy="265" r="10" stroke="red" fill="white" fill-opacity="0.8" stroke-opacity="0.8" style="stroke-width:5" />
<circle cx="323" cy="323" r="10" stroke="red" fill="white" fill-opacity="0.8" stroke-opacity="0.8" style="stroke-width:5" />
<circle cx="265" cy="176" r="10" stroke="red" fill="white" fill-opacity="0.8" stroke-opacity="0.8" style="stroke-width:5" />
<line x1="500" y1="100" x2="563" y2="105" stroke="white" stroke-width="20px" style="stroke-opacity:0.95"/>
<line x1="563" y1="105" x2="562" y2="310" stroke="white" stroke-width="20px" style="stroke-opacity:0.95"/>
<line x1="562" y1="310" x2="659" y2="188" stroke="white" stroke-width="20px" style="stroke-opacity:0.95"/>
<line x1="659" y1="188" x2="706" y2="217" stroke="white" stroke-width="20px" style="stroke-opacity:0.95"/>
<line x1="706" y1="217" x2="641" y2="359" stroke="white" stroke-width="20px" style="stroke-opacity:0.95"/>
<line x1="641" y1="359" x2="662" y2="382" stroke="white" stroke-width="20px" style="stroke-opacity:0.95"/>
<line x1="662" y1="382" x2="856" y2="318" stroke="white" stroke-width="20px" style="stroke-opacity:0.95"/>
<line x1="856" y1="318" x2="785" y2="407" stroke="white" stroke-width="20px" style="stroke-opacity:0.95"/>
<line x1="785" y1="407" x2="846" y2="445" stroke="white" stroke-width="20px" style="stroke-opacity:0.95"/>
<line x1="846" y1="445" x2="850" y2="500" stroke="white" stroke-width="20px" style="stroke-opacity:0.95"/>
<line x1="850" y1="500" x2="796" y2="547" stroke="white" stroke-width="20px" style="stroke-opacity:0.95"/>
<line x1="796" y1="547" x2="833" y2="608" stroke="white" stroke-width="20px" style="stroke-opacity:0.95"/>
<line x1="833" y1="608" x2="678" y2="591" stroke="white" stroke-width="20px" style="stroke-opacity:0.95"/>
<line x1="678" y1="591" x2="824" y2="735" stroke="white" stroke-width="20px" style="stroke-opacity:0.95"/>
<line x1="824" y1="735" x2="747" y2="747" stroke="white" stroke-width="20px" style="stroke-opacity:0.95"/>
<line x1="747" y1="747" x2="647" y2="702" stroke="white" stroke-width="20px" style="stroke-opacity:0.95"/>
<line x1="647" y1="702" x2="659" y2="812" stroke="white" stroke-width="20px" style="stroke-opacity:0.95"/>
<line x1="659" y1="812" x2="562" y2="690" stroke="white" stroke-width="20px" style="stroke-opacity:0.95"/>
<line x1="562" y1="690" x2="563" y2="895" stroke="white" stroke-width="20px" style="stroke-opacity:0.95"/>
<line x1="563" y1="895" x2="500" y2="900" stroke="white" stroke-width="20px" style="stroke-opacity:0.95"/>
<line x1="500" y1="900" x2="453" y2="796" stroke="white" stroke-width="20px" style="stroke-opacity:0.95"/>
<line x1="453" y1="796" x2="438" y2="690" stroke="white" stroke-width="20px" style="stroke-opacity:0.95"/>
<line x1="438" y1="690" x2="409" y2="678" stroke="white" stroke-width="20px" style="stroke-opacity:0.95"/>
<line x1="409" y1="678" x2="294" y2="783" stroke="white" stroke-width="20px" style="stroke-opacity:0.95"/>
<line x1="294" y1="783" x2="253" y2="747" stroke="white" stroke-width="20px" style="stroke-opacity:0.95"/>
<line x1="253" y1="747" x2="257" y2="676" stroke="white" stroke-width="20px" style="stroke-opacity:0.95"/>
<line x1="257" y1="676" x2="144" y2="682" stroke="white" stroke-width="20px" style="stroke-opacity:0.95"/>
<line x1="144" y1="682" x2="215" y2="593" stroke="white" stroke-width="20px" style="stroke-opacity:0.95"/>
<line x1="215" y1="593" x2="302" y2="531" stroke="white" stroke-width="20px" style="stroke-opacity:0.95"/>
<line x1="302" y1="531" x2="250" y2="500" stroke="white" stroke-width="20px" style="stroke-opacity:0.95"/>
<line x1="250" y1="500" x2="154" y2="445" stroke="white" stroke-width="20px" style="stroke-opacity:0.95"/>
<line x1="154" y1="445" x2="215" y2="407" stroke="white" stroke-width="20px" style="stroke-opacity:0.95"/>
<line x1="215" y1="407" x2="144" y2="318" stroke="white" stroke-width="20px" style="stroke-opacity:0.95"/>
<line x1="144" y1="318" x2="176" y2="265" stroke="white" stroke-width="20px" style="stroke-opacity:0.95"/>
<line x1="176" y1="265" x2="217" y2="217" stroke="white" stroke-width="20px" style="stroke-opacity:0.95"/>
<line x1="217" y1="217" x2="353" y2="298" stroke="white" stroke-width="20px" style="stroke-opacity:0.95"/>
<line x1="500" y1="100" x2="563" y2="105" stroke="blue" stroke-width="5px" style="stroke-opacity:0.8"/>
<line x1="563" y1="105" x2="562" y2="310" stroke="blue" stroke-width="5px" style="stroke-opacity:0.8"/>
<line x1="562" y1="310" x2="659" y2="188" stroke="blue" stroke-width="5px" style="stroke-opacity:0.8"/>
<line x1="659" y1="188" x2="706" y2="217" stroke="blue" stroke-width="5px" style="stroke-opacity:0.8"/>
<line x1="706" y1="217" x2="641" y2="359" stroke="blue" stroke-width="5px" style="stroke-opacity:0.8"/>
<line x1="641" y1="359" x2="662" y2="382" stroke="blue" stroke-width="5px" style="stroke-opacity:0.8"/>
<line x1="662" y1="382" x2="856" y2="318" stroke="blue" stroke-width="5px" style="stroke-opacity:0.8"/>
<line x1="856" y1="318" x2="785" y2="407" stroke="blue" stroke-width="5px" style="stroke-opacity:0.8"/>
<line x1="785" y1="407" x2="846" y2="445" stroke="blue" stroke-width="5px" style="stroke-opacity:0.8"/>
<line x1="846" y1="445" x2="850" y2="500" stroke="blue" stroke-width="5px" style="stroke-opacity:0.8"/>
<line x1="850" y1="500" x2="796" y2="547" stroke="blue" stroke-width="5px" style="stroke-opacity:0.8"/>
<line x1="796" y1="547" x2="833" y2="608" stroke="blue" stroke-width="5px" style="stroke-opacity:0.8"/>
<line x1="833" y1="608" x2="678" y2="591" stroke="blue" stroke-width="5px" style="stroke-opacity:0.8"/>
<line x1="678" y1="591" x2="824" y2="735" stroke="blue" stroke-width="5px" style="stroke-opacity:0.8"/>
<line x1="824" y1="735" x2="747" y2="747" stroke="blue" stroke-width="5px" style="stroke-opacity:0.8"/>
<line x1="747" y1="747" x2="647" y2="702" stroke="blue" stroke-width="5px" style="stroke-opacity:0.8"/>
<line x1="647" y1="702" x2="659" y2="812" stroke="blue" stroke-width="5px" style="stroke-opacity:0.8"/>
<line x1="659" y1="812" x2="562" y2="690" stroke="blue" stroke-width="5px" style="stroke-opacity:0.8"/>
<line x1="562" y1="690" x2="563" y2="895" stroke="blue" stroke-width="5px" style="stroke-opacity:0.8"/>
<line x1="563" y1="895" x2="500" y2="900" stroke="blue" stroke-width="5px" style="stroke-opacity:0.8"/>
<line x1="500" y1="900" x2="453" y2="796" stroke="blue" stroke-width="5px" style="stroke-opacity:0.8"/>
<line x1="453" y1="796" x2="438" y2="690" stroke="blue" stroke-width="5px" style="stroke-opacity:0.8"/>
<line x1="438" y1="690" x2="409" y2="678" stroke="blue" stroke-width="5px" style="stroke-opacity:0.8"/>
<line x1="409" y1="678" x2="294" y2="783" stroke="blue" stroke-width="5px" style="stroke-opacity:0.8"/>
<line x1="294" y1="783" x2="253" y2="747" stroke="blue" stroke-width="5px" style="stroke-opacity:0.8"/>
<line x1="253" y1="747" x2="257" y2="676" stroke="blue" stroke-width="5px" style="stroke-opacity:0.8"/>
<line x1="257" y1="676" x2="144" y2="682" stroke="blue" stroke-width="5px" style="stroke-opacity:0.8"/>
<line x1="144" y1="682" x2="215" y2="593" stroke="blue" stroke-width="5px" style="stroke-opacity:0.8"/>
<line x1="215" y1="593" x2="302" y2="531" stroke="blue" stroke-width="5px" style="stroke-opacity:0.8"/>
<line x1="302" y1="531" x2="250" y2="500" stroke="blue" stroke-width="5px" style="stroke-opacity:0.8"/>
<line x1="250" y1="500" x2="154" y2="445" stroke="blue" stroke-width="5px" style="stroke-opacity:0.8"/>
<line x1="154" y1="445" x2="215" y2="407" stroke="blue" stroke-width="5px" style="stroke-opacity:0.8"/>
<line x1="215" y1="407" x2="144" y2="318" stroke="blue" stroke-width="5px" style="stroke-opacity:0.8"/>
<line x1="144" y1="318" x2="176" y2="265" stroke="blue" stroke-width="5px" style="stroke-opacity:0.8"/>
<line x1="176" y1="265" x2="217" y2="217" stroke="blue" stroke-width="5px" style="stroke-opacity:0.8"/>
<line x1="217" y1="217" x2="353" y2="298" stroke="blue" stroke-width="5px" style="stroke-opacity:0.8"/>
<circle cx="500" cy="100" r="15" stroke="white" fill="white" fill-opacity="0.95" stroke-opacity="0.95" style="stroke-width:5" />
<circle cx="563" cy="105" r="15" stroke="white" fill="white" fill-opacity="0.95" stroke-opacity="0.95" style="stroke-width:5" />
<circle cx="562" cy="310" r="15" stroke="white" fill="white" fill-opacity="0.95" stroke-opacity="0.95" style="stroke-width:5" />
<circle cx="659" cy="188" r="15" stroke="white" fill="white" fill-opacity="0.95" stroke-opacity="0.95" style="stroke-width:5" />
<circle cx="706" cy="217" r="15" stroke="white" fill="white" fill-opacity="0.95" stroke-opacity="0.95" style="stroke-width:5" />
<circle cx="641" cy="359" r="15" stroke="white" fill="white" fill-opacity="0.95" stroke-opacity="0.95" style="stroke-width:5" />
<circle cx="662" cy="382" r="15" stroke="white" fill="white" fill-opacity="0.95" stroke-opacity="0.95" style="stroke-width:5" />
<circle cx="856" cy="318" r="15" stroke="white" fill="white" fill-opacity="0.95" stroke-opacity="0.95" style="stroke-width:5" />
<circle cx="785" cy="407" r="15" stroke="white" fill="white" fill-opacity="0.95" stroke-opacity="0.95" style="stroke-width:5" />
<circle cx="846" cy="445" r="15" stroke="white" fill="white" fill-opacity="0.95" stroke-opacity="0.95" style="stroke-width:5" />
<circle cx="850" cy="500" r="15" stroke="white" fill="white" fill-opacity="0.95" stroke-opacity="0.95" style="stroke-width:5" />
<circle cx="796" cy="547" r="15" stroke="white" fill="white" fill-opacity="0.95" stroke-opacity="0.95" style="stroke-width:5" />
<circle cx="833" cy="608" r="15" stroke="white" fill="white" fill-opacity="0.95" stroke-opacity="0.95" style="stroke-width:5" />
<circle cx="678" cy="591" r="15" stroke="white" fill="white" fill-opacity="0.95" stroke-opacity="0.95" style="stroke-width:5" />
<circle cx="824" cy="735" r="15" stroke="white" fill="white" fill-opacity="0.95" stroke-opacity="0.95" style="stroke-width:5" />
<circle cx="747" cy="747" r="15" stroke="white" fill="white" fill-opacity="0.95" stroke-opacity="0.95" style="stroke-width:5" />
<circle cx="647" cy="702" r="15" stroke="white" fill="white" fill-opacity="0.95" stroke-opacity="0.95" style="stroke-width:5" />
<circle cx="659" cy="812" r="15" stroke="white" fill="white" fill-opacity="0.95" stroke-opacity="0.95" style="stroke-width:5" />
<circle cx="562" cy="690" r="15" stroke="white" fill="white" fill-opacity="0.95" stroke-opacity="0.95" style="stroke-width:5" />
<circle cx="563" cy="895" r="15" stroke="white" fill="white" fill-opacity="0.95" stroke-opacity="0.95" style="stroke-width:5" />
<circle cx="500" cy="900" r="15" stroke="white" fill="white" fill-opacity="0.95" stroke-opacity="0.95" style="stroke-width:5" />
<circle cx="453" cy="796" r="15" stroke="white" fill="white" fill-opacity="0.95" stroke-opacity="0.95" style="stroke-width:5" />
<circle cx="438" cy="690" r="15" stroke="white" fill="white" fill-opacity="0.95" stroke-opacity="0.95" style="stroke-width:5" />
<circle cx="409" cy="678" r="15" stroke="white" fill="white" fill-opacity="0.95" stroke-opacity="0.95" style="stroke-width:5" />
<circle cx="294" cy="783" r="15" stroke="white" fill="white" fill-opacity="0.95" stroke-opacity="0.95" style="stroke-width:5" />
<circle cx="253" cy="747" r="15" stroke="white" fill="white" fill-opacity="0.95" stroke-opacity="0.95" style="stroke-width:5" />
<circle cx="257" cy="676" r="15" stroke="white" fill="white" fill-opacity="0.95" stroke-opacity="0.95" style="stroke-width:5" />
<circle cx="144" cy="682" r="15" stroke="white" fill="white" fill-opacity="0.95" stroke-opacity="0.95" style="stroke-width:5" />
<circle cx="215" cy="593" r="15" stroke="white" fill="white" fill-opacity="0.95" stroke-opacity="0.95" style="stroke-width:5" />
<circle cx="302" cy="531" r="15" stroke="white" fill="white" fill-opacity="0.95" stroke-opacity="0.95" style="stroke-width:5" />
<circle cx="250" cy="500" r="15" stroke="white" fill="white" fill-opacity="0.95" stroke-opacity="0.95" style="stroke-width:5" />
<circle cx="154" cy="445" r="15" stroke="white" fill="white" fill-opacity="0.95" stroke-opacity="0.95" style="stroke-width:5" />
<circle cx="215" cy="407" r="15" stroke="white" fill="white" fill-opacity="0.95" stroke-opacity="0.95" style="stroke-width:5" />
<circle cx="144" cy="318" r="15" stroke="white" fill="white" fill-opacity="0.95" stroke-opacity="0.95" style="stroke-width:5" />
<circle cx="176" cy="265" r="15" stroke="white" fill="white" fill-opacity="0.95" stroke-opacity="0.95" style="stroke-width:5" />
<circle cx="217" cy="217" r="15" stroke="white" fill="white" fill-opacity="0.95" stroke-opacity="0.95" style="stroke-width:5" />
<circle cx="353" cy="298" r="15" stroke="white" fill="white" fill-opacity="0.95" stroke-opacity="0.95" style="stroke-width:5" />
<circle cx="500" cy="100" r="10" stroke="blue" fill="white" fill-opacity="0.8" stroke-opacity="0.8" style="stroke-width:5" />
<circle cx="563" cy="105" r="10" stroke="blue" fill="white" fill-opacity="0.8" stroke-opacity="0.8" style="stroke-width:5" />
<circle cx="562" cy="310" r="10" stroke="blue" fill="white" fill-opacity="0.8" stroke-opacity="0.8" style="stroke-width:5" />
<circle cx="659" cy="188" r="10" stroke="blue" fill="white" fill-opacity="0.8" stroke-opacity="0.8" style="stroke-width:5" />
<circle cx="706" cy="217" r="10" stroke="blue" fill="white" fill-opacity="0.8" stroke-opacity="0.8" style="stroke-width:5" />
<circle cx="641" cy="359" r="10" stroke="blue" fill="white" fill-opacity="0.8" stroke-opacity="0.8" style="stroke-width:5" />
<circle cx="662" cy="382" r="10" stroke="blue" fill="white" fill-opacity="0.8" stroke-opacity="0.8" style="stroke-width:5" />
<circle cx="856" cy="318" r="10" stroke="blue" fill="white" fill-opacity="0.8" stroke-opacity="0.8" style="stroke-width:5" />
<circle cx="785" cy="407" r="10" stroke="blue" fill="white" fill-opacity="0.8" stroke-opacity="0.8" style="stroke-width:5" />
<circle cx="846" cy="445" r="10" stroke="blue" fill="white" fill-opacity="0.8" stroke-opacity="0.8" style="stroke-width:5" />
<circle cx="850" cy="500" r="10" stroke="blue" fill="white" fill-opacity="0.8" stroke-opacity="0.8" style="stroke-width:5" />
<circle cx="796" cy="547" r="10" stroke="blue" fill="white" fill-opacity="0.8" stroke-opacity="0.8" style="stroke-width:5" />
<circle cx="833" cy="608" r="10" stroke="blue" fill="white" fill-opacity="0.8" stroke-opacity="0.8" style="stroke-width:5" />
<circle cx="678" cy="591" r="10" stroke="blue" fill="white" fill-opacity="0.8" stroke-opacity="0.8" style="stroke-width:5" />
<circle cx="824" cy="735" r="10" stroke="blue" fill="white" fill-opacity="0.8" stroke-opacity="0.8" style="stroke-width:5" />
<circle cx="747" cy="747" r="10" stroke="blue" fill="white" fill-opacity="0.8" stroke-opacity="0.8" style="stroke-width:5" />
<circle cx="647" cy="702" r="10" stroke="blue" fill="white" fill-opacity="0.8" stroke-opacity="0.8" style="stroke-width:5" />
<circle cx="659" cy="812" r="10" stroke="blue" fill="white" fill-opacity="0.8" stroke-opacity="0.8" style="stroke-width:5" />
<circle cx="562" cy="690" r="10" stroke="blue" fill="white" fill-opacity="0.8" stroke-opacity="0.8" style="stroke-width:5" />
<circle cx="563" cy="895" r="10" stroke="blue" fill="white" fill-opacity="0.8" stroke-opacity="0.8" style="stroke-width:5" />
<circle cx="500" cy="900" r="10" stroke="blue" fill="white" fill-opacity="0.8" stroke-opacity="0.8" style="stroke-width:5" />
<circle cx="453" cy="796" r="10" stroke="blue" fill="white" fill-opacity="0.8" stroke-opacity="0.8" style="stroke-width:5" />
<circle cx="438" cy="690" r="10" stroke="blue" fill="white" fill-opacity="0.8" stroke-opacity="0.8" style="stroke-width:5" />
<circle cx="409" cy="678" r="10" stroke="blue" fill="white" fill-opacity="0.8" stroke-opacity="0.8" style="stroke-width:5" />
<circle cx="294" cy="783" r="10" stroke="blue" fill="white" fill-opacity="0.8" stroke-opacity="0.8" style="stroke-width:5" />
<circle cx="253" cy="747" r="10" stroke="blue" fill="white" fill-opacity="0.8" stroke-opacity="0.8" style="stroke-width:5" />
<circle cx="257" cy="676" r="10" stroke="blue" fill="white" fill-opacity="0.8" stroke-opacity="0.8" style="stroke-width:5" />
<circle cx="144" cy="682" r="10" stroke="blue" fill="white" fill-opacity="0.8" stroke-opacity="0.8" style="stroke-width:5" />
<circle cx="215" cy="593" r="10" stroke="blue" fill="white" fill-opacity="0.8" stroke-opacity="0.8" style="stroke-width:5" />
<circle cx="302" cy="531" r="10" stroke="blue" fill="white" fill-opacity="0.8" stroke-opacity="0.8" style="stroke-width:5" />
<circle cx="250" cy="500" r="10" stroke="blue" fill="white" fill-opacity="0.8" stroke-opacity="0.8" style="stroke-width:5" />
<circle cx="154" cy="445" r="10" stroke="blue" fill="white" fill-opacity="0.8" stroke-opacity="0.8" style="stroke-width:5" />
<circle cx="215" cy="407" r="10" stroke="blue" fill="white" fill-opacity="0.8" stroke-opacity="0.8" style="stroke-width:5" />
<circle cx="144" cy="318" r="10" stroke="blue" fill="white" fill-opacity="0.8" stroke-opacity="0.8" style="stroke-width:5" />
<circle cx="176" cy="265" r="10" stroke="blue" fill="white" fill-opacity="0.8" stroke-opacity="0.8" style="stroke-width:5" />
<circle cx="217" cy="217" r="10" stroke="blue" fill="white" fill-opacity="0.8" stroke-opacity="0.8" style="stroke-width:5" />
<circle cx="353" cy="298" r="10" stroke="blue" fill="white" fill-opacity="0.8" stroke-opacity="0.8" style="stroke-width:5" />
</svg>